<svg data-noselect="" viewBox="0 0 400 300" width="400" height="300" preserveAspectRatio="none" version="1.1" xmlns="http://www.w3.org/2000/svg" style="background: rgba(255, 255, 255, 0);"><defs></defs> <g id="shape_UU0LjKdnrS" transform="translate(82.97245679639965,19.969396440444054) rotate(0,175.81033590967868,195.34481767742074) scale(0.6656465480148018,0.6656465480148018)" filter="" style="cursor: move; opacity: 1;"><g><rect fill="rgba(0,0,0,0)" width="371.62067181935737" height="410.68963535484147" x="-10" y="-10"></rect><svg fill="#000000" xmlns="http://www.w3.org/2000/svg" xmlns:xlink="http://www.w3.org/1999/xlink" version="1.1" x="0px" y="0px" viewBox="1 0 18 20" enable-background="new 0 0 20 20" xml:space="preserve" width="351.62067181935737" height="390.68963535484147" preserveAspectRatio="none" data-parent="shape_UU0LjKdnrS"><path fill="#000000" d="M18.8,3h-1.6C17.1,3,17,3.1,17,3.2V18H4c-0.6,0-1-0.4-1-1c0-0.6,0.4-1,1-1h10.8c0.1,0,0.2-0.1,0.2-0.2  l0-15.6C15,0.1,14.9,0,14.8,0H3C1.9,0,1,0.9,1,2v14.9l0,0c0,0.6,0.1,1.2,0.6,1.8C2.2,19.5,3.2,20,4.2,20H18c0.6,0,1-0.4,1-1V3.2  C19,3.1,18.9,3,18.8,3z"></path></svg></g> <!----></g><g id="shapge_d6dvslMdq9" transform="translate(139.63782380865186,80.14233152816118) rotate(0,90.6862341195148,79.06178990614349) scale(0.6656465480148018,0.6656465480148018)" filter="" style="cursor: move; opacity: 1;"><g><svg xmlns="http://www.w3.org/2000/svg" version="1.1" xmlns:xlink="http://www.w3.org/1999/xlink" overflow="hidden" style="top:0; left: 0" width="181.3724682390296" height="158.12357981228698" viewBox="0 0 101.4206008 88.420192" preserveAspectRatio="none" data-parent="shapge_d6dvslMdq9"><rect fill="rgba(0,0,0,0)" width="101.4206008" height="88.420192"></rect> <rect opacity="0"></rect><g transform="translate(0 0)" data-width="46.4206008"><path fill="#ffffff" d="M42.16 0L7.89 0L7.89-57.87L41.29-57.87L41.29-51.71L15.24-51.71L15.24-33.55L37.18-33.55L37.18-27.32L15.24-27.32L15.24-6.24L42.16-6.24L42.16 0Z" transform="translate(0 69.47300800000001)"></path></g></svg></g> <!----></g>  <!----></svg>